<svg xmlns:sketch="http://www.bohemiancoding.com/sketch/ns" xmlns="http://www.w3.org/2000/svg" xmlns:xlink="http://www.w3.org/1999/xlink" version="1.1" x="0px" y="0px" viewBox="-255 347 100 125" style="enable-background:new -255 347 100 100;" xml:space="preserve"><style type="text/css">
	.st0{fill:#151515;}
</style><g><path class="st0" d="M-163.8,379h-82.5c-2.4,5.5-3.8,11.6-3.8,18c0,24.9,20.1,45,45,45c24.9,0,45-20.1,45-45   C-160,390.6-161.3,384.5-163.8,379z M-190.6,401.4c-0.8,0.8-2,0.8-2.8,0l-9.6-9.6v34.7c0,1.1-0.9,2-2,2s-2-0.9-2-2v-34.7l-9.6,9.6   c-0.8,0.8-2,0.8-2.8,0c-0.8-0.8-0.8-2,0-2.8l13-13c0.8-0.8,2-0.8,2.8,0l13,13C-189.8,399.4-189.8,400.6-190.6,401.4z"/><path class="st0" d="M-205,352c-16.9,0-31.5,9.3-39.3,23h78.5C-173.5,361.3-188.1,352-205,352z"/></g><title>To Top 5</title><desc>Created with Sketch.</desc><text x="-255" y="462" fill="#000000" font-size="5px" font-weight="bold" font-family="'Helvetica Neue', Helvetica, Arial-Unicode, Arial, Sans-serif">Created by Jeremy Elder</text><text x="-255" y="467" fill="#000000" font-size="5px" font-weight="bold" font-family="'Helvetica Neue', Helvetica, Arial-Unicode, Arial, Sans-serif">from the Noun Project</text></svg>